<svg xmlns="http://www.w3.org/2000/svg" width="16" height="16" fill="white" class="bi" viewBox="0 0 16 16">
<path d="M 10.734375 11.953125 L 8.9375 13.691406 C 8.625 14.003906 8.195312 14.132812 7.722656 14.132812 C 7.246094 14.132812 6.816406 14.003906 6.503906 13.691406 L 3.617188 10.78125 C 3.304688 10.472656 3.148438 10.015625 3.148438 9.539062 C 3.148438 9.066406 3.304688 8.636719 3.617188 8.324219 L 6.496094 5.40625 C 6.808594 5.09375 7.246094 4.976562 7.722656 4.976562 C 8.195312 4.976562 8.625 5.105469 8.9375 5.414062 L 10.734375 7.152344 C 11.078125 7.496094 11.644531 7.484375 12 7.128906 C 12.359375 6.769531 12.371094 6.203125 12.027344 5.859375 L 10.289062 4.101562 C 9.839844 3.660156 9.273438 3.351562 8.65625 3.210938 L 10.300781 1.542969 C 10.648438 1.199219 10.632812 0.632812 10.277344 0.277344 C 9.921875 -0.0820312 9.351562 -0.09375 9.011719 0.25 L 2.277344 6.984375 C 1.621094 7.640625 1.28125 8.542969 1.28125 9.542969 C 1.28125 10.539062 1.621094 11.472656 2.277344 12.125 L 5.175781 15.03125 C 5.828125 15.683594 6.734375 16 7.730469 16 C 8.730469 16 9.632812 15.660156 10.289062 15.003906 L 12.027344 13.246094 C 12.371094 12.902344 12.355469 12.335938 12 11.980469 C 11.644531 11.621094 11.078125 11.609375 10.734375 11.953125 Z M 13.875 8.671875 L 7.109375 8.671875 C 6.644531 8.671875 6.265625 9.074219 6.265625 9.570312 C 6.265625 10.066406 6.644531 10.46875 7.109375 10.46875 L 13.875 10.46875 C 14.339844 10.46875 14.71875 10.066406 14.71875 9.570312 C 14.71875 9.074219 14.339844 8.671875 13.875 8.671875 Z M 13.875 8.671875 "/>
</svg>